<?xml version="1.0" encoding="UTF-8" standalone="no"?>
<!-- Created with Inkscape (http://www.inkscape.org/) -->
<svg id="svg3042" xmlns:rdf="http://www.w3.org/1999/02/22-rdf-syntax-ns#" xmlns="http://www.w3.org/2000/svg" viewBox="0 0 35 40" version="1.1" xmlns:cc="http://creativecommons.org/ns#" xmlns:dc="http://purl.org/dc/elements/1.1/">
 <metadata id="metadata3047">
  <rdf:RDF>
   <cc:Work rdf:about="">
    <dc:format>image/svg+xml</dc:format>
    <dc:type rdf:resource="http://purl.org/dc/dcmitype/StillImage"/>
    <dc:title/>
   </cc:Work>
  </rdf:RDF>
 </metadata>
  <path id="path3025" style="fill:#000000;text-align:start;" d="M19.188,4.0378c-1.698,10.6-3.396,21.2-5.094,31.8,1.478,0.9,2.037-0.6,2.024-1.7,1.607-10.1,3.213-20.1,4.82-30.1h-1.75zm-6.469,5.3c-3.9064,3-7.8129,6-11.719,9v3.7c3.9045,3,7.8143,6,11.719,9v-3.9c-3.0949-2.3-6.1868-4.6-9.2815-7,3.0937-2.3,6.1875-4.6,9.2815-6.9v-3.9zm9.562,0v3.9c3.094,2.3,6.188,4.6,9.281,6.9-3.093,2.4-6.187,4.7-9.281,7v3.9c3.905-3,7.814-6,11.719-9v-3.7c-3.906-3-7.813-6-11.719-9z"/>
</svg>
