<?xml version="1.0" encoding="UTF-8" standalone="no"?>
<!-- Created with Inkscape (http://www.inkscape.org/) -->

<svg
   xmlns:dc="http://purl.org/dc/elements/1.1/"
   xmlns:cc="http://creativecommons.org/ns#"
   xmlns:rdf="http://www.w3.org/1999/02/22-rdf-syntax-ns#"
   xmlns:svg="http://www.w3.org/2000/svg"
   xmlns="http://www.w3.org/2000/svg"
   xmlns:sodipodi="http://sodipodi.sourceforge.net/DTD/sodipodi-0.dtd"
   xmlns:inkscape="http://www.inkscape.org/namespaces/inkscape"
   width="200"
   height="200"
   id="svg3295"
   version="1.1"
   inkscape:version="0.48.4 r9939"
   sodipodi:docname="icon-clock.svg">
  <title
     id="title3346">Clock Icon</title>
  <defs
     id="defs3297" />
  <sodipodi:namedview
     id="base"
     pagecolor="#ffffff"
     bordercolor="#666666"
     borderopacity="1.0"
     inkscape:pageopacity="0.0"
     inkscape:pageshadow="2"
     inkscape:zoom="0.98994949"
     inkscape:cx="218.93143"
     inkscape:cy="75.53288"
     inkscape:document-units="px"
     inkscape:current-layer="layer1"
     showgrid="false"
     inkscape:window-width="1602"
     inkscape:window-height="1028"
     inkscape:window-x="70"
     inkscape:window-y="-8"
     inkscape:window-maximized="1" />
  <metadata
     id="metadata3300">
    <rdf:RDF>
      <cc:Work
         rdf:about="">
        <dc:format>image/svg+xml</dc:format>
        <dc:type
           rdf:resource="http://purl.org/dc/dcmitype/StillImage" />
        <dc:title>Clock Icon</dc:title>
        <cc:license
           rdf:resource="http://creativecommons.org/publicdomain/zero/1.0/" />
        <dc:date>2014-06-11</dc:date>
        <dc:creator>
          <cc:Agent>
            <dc:title>Rossen Georgiev</dc:title>
          </cc:Agent>
        </dc:creator>
        <dc:rights>
          <cc:Agent>
            <dc:title>Rossen Georgiev</dc:title>
          </cc:Agent>
        </dc:rights>
        <dc:subject>
          <rdf:Bag />
        </dc:subject>
      </cc:Work>
    </rdf:RDF>
  </metadata>
  <g
     inkscape:label="Layer 1"
     inkscape:groupmode="layer"
     id="layer1"
     transform="translate(0,-852.36218)">
    <path
       inkscape:connector-curvature="0"
       style="fill:#000000;fill-opacity:1;stroke:none"
       d="M 100,852.36217 C 44.77152,852.36217 0,897.1337 0,952.36217 0,1007.5907 44.77152,1052.3622 100,1052.3622 155.22848,1052.3622 200,1007.5907 200,952.36217 200,897.1337 155.22848,852.36217 100,852.36217 z M 100,862.36217 C 149.70563,862.36217 190,902.65654 190,952.36217 190,1002.0678 149.70563,1042.3622 100,1042.3622 50.29437,1042.3622 10,1002.0678 10,952.36217 10,902.65654 50.29437,862.36217 100,862.36217 z M 97.9375,872.36217 C 54.70901,873.45737 20,908.86975 20,952.36217 20,996.54495 55.81722,1032.3622 100,1032.3622 144.18278,1032.3622 180,996.54495 180,952.36217 180,908.17939 144.18278,872.36217 100,872.36217 99.30964,872.36217 98.62367,872.34479 97.9375,872.36217 z"
       id="path3008" />
    <path
       sodipodi:type="arc"
       style="fill:#ffffff;fill-opacity:1;stroke:none"
       id="path3037"
       sodipodi:cx="491.94427"
       sodipodi:cy="235.65385"
       sodipodi:rx="5.5558391"
       sodipodi:ry="7.0710678"
       d="M 497.50011,235.65385 A 5.5558391,7.0710678 0 1 1 486.38844,235.65385 5.5558391,7.0710678 0 1 1 497.50011,235.65385 z"
       transform="matrix(2.2498852,0,0,1.767767,-1006.8181,535.76824)" />
    <rect
       rx="5"
       ry="4.5671725"
       y="895.53796"
       x="94.811348"
       height="65"
       width="10"
       id="rect3135"
       style="fill:#ffffff;fill-opacity:1;stroke:none" />
    <rect
       style="fill:#ffffff;fill-opacity:1;stroke:none"
       id="rect3079-8-8-2"
       width="12"
       height="20"
       x="-958.34937"
       y="165.00002"
       ry="0.42426404"
       transform="matrix(0,-1,1,0,0,0)" />
    <rect
       style="fill:#ffffff;fill-opacity:1;stroke:none"
       id="rect3079-8-8-2-4"
       width="12"
       height="20"
       x="-958.34937"
       y="15.000007"
       ry="0.42426404"
       transform="matrix(0,-1,1,0,0,0)" />
    <rect
       style="fill:#ffffff;fill-opacity:1;stroke:none"
       id="rect3079-8-8-2-5"
       width="12"
       height="20"
       x="-106.00001"
       y="-887.34937"
       ry="0.42426404"
       transform="scale(-1,-1)" />
    <rect
       style="fill:#ffffff;fill-opacity:1;stroke:none"
       id="rect3079-8-8-2-5-5"
       width="12"
       height="20"
       x="-106.00001"
       y="-1037.3494"
       ry="0.42426404"
       transform="scale(-1,-1)" />
    <rect
       rx="6"
       ry="5.7130308"
       y="748.54572"
       x="-609.12396"
       height="45"
       width="12"
       id="rect3135-7"
       style="fill:#ffffff;fill-opacity:1;stroke:none"
       transform="matrix(0.70710678,-0.70710678,0.70710678,0.70710678,0,0)" />
  </g>
</svg>
