<?xml version="1.0" encoding="UTF-8" standalone="no"?>
<!-- Created with Inkscape (http://www.inkscape.org/) -->

<svg
   xmlns:dc="http://purl.org/dc/elements/1.1/"
   xmlns:cc="http://creativecommons.org/ns#"
   xmlns:rdf="http://www.w3.org/1999/02/22-rdf-syntax-ns#"
   xmlns:svg="http://www.w3.org/2000/svg"
   xmlns="http://www.w3.org/2000/svg"
   xmlns:sodipodi="http://sodipodi.sourceforge.net/DTD/sodipodi-0.dtd"
   xmlns:inkscape="http://www.inkscape.org/namespaces/inkscape"
   id="svg3042"
   viewBox="0 0 35 40"
   version="1.1"
   inkscape:version="0.48.4 r9939"
   width="100%"
   height="100%"
   sodipodi:docname="icon-weather.svg">
  <title
     id="title4057">Weather Icon</title>
  <defs
     id="defs3353" />
  <sodipodi:namedview
     pagecolor="#ffffff"
     bordercolor="#666666"
     borderopacity="1"
     objecttolerance="10"
     gridtolerance="10"
     guidetolerance="10"
     inkscape:pageopacity="0"
     inkscape:pageshadow="2"
     inkscape:window-width="1602"
     inkscape:window-height="1028"
     id="namedview3351"
     showgrid="false"
     inkscape:zoom="11.96225"
     inkscape:cx="22.500787"
     inkscape:cy="33.043559"
     inkscape:window-x="70"
     inkscape:window-y="-8"
     inkscape:window-maximized="1"
     inkscape:current-layer="svg3042" />
  <metadata
     id="metadata3047">
    <rdf:RDF>
      <cc:Work
         rdf:about="">
        <dc:format>image/svg+xml</dc:format>
        <dc:type
           rdf:resource="http://purl.org/dc/dcmitype/StillImage" />
        <dc:title>Weather Icon</dc:title>
        <cc:license
           rdf:resource="http://creativecommons.org/publicdomain/zero/1.0/" />
        <dc:date>2013</dc:date>
        <dc:creator>
          <cc:Agent>
            <dc:title>KickstandApps (kickstandapps.com).</dc:title>
          </cc:Agent>
        </dc:creator>
        <dc:rights>
          <cc:Agent>
            <dc:title>KickstandApps (kickstandapps.com).</dc:title>
          </cc:Agent>
        </dc:rights>
        <dc:source>https://github.com/kickstandapps/WeatherIcons</dc:source>
      </cc:Work>
    </rdf:RDF>
  </metadata>
  <path
     style="fill:#000000;fill-opacity:1;stroke:none"
     d="M 18.28125,5 C 17.665689,5.1577701 18.03897,6.072102 17.9375,6.6048171 17.961629,7.7933649 17.891319,9.0210305 17.96875,10.1875 18.260664,10.655295 18.988694,10.16755 19.495121,10.179003 19.915569,10.180314 20.482932,9.9817615 20.218593,9.5070668 19.685242,8.0689805 19.166647,6.5372411 18.625,5.15625 18.528924,5.0654291 18.420762,5.0014609 18.28125,5 z M 28.15625,6.78125 C 27.636383,7.0532274 27.291342,7.7650855 26.831767,8.2022559 26.183602,9.0036626 25.432231,9.7753304 24.84375,10.59375 24.760617,11.249334 25.657959,11.271078 26.078986,11.644576 26.390422,11.953835 26.933703,11.952146 27.000157,11.538317 27.50744,10.067568 28.117357,8.594139 28.5625,7.125 28.492656,6.9017107 28.410263,6.7690543 28.15625,6.78125 z M 9.5,10 C 9.0954231,10.135594 9.2373811,10.695886 9.5795967,10.908518 10.537018,12.015516 11.460558,13.256267 12.4375,14.28125 13.029751,14.410245 13.239648,13.580555 13.666521,13.22967 13.9948,13.00156 14.131018,12.482443 13.78125,12.375 12.489706,11.554805 11.012447,10.783392 9.71875,10 9.6458333,10 9.5729167,10 9.5,10 z M 20.84375,11.84375 C 18.371908,11.824599 15.919598,13.01633 14.4375,15 11.081301,15.152911 7.9058815,17.160924 6.28125,20.09375 2.2666586,20.646663 -0.69921244,24.862902 0.11714748,28.826804 0.69396943,32.528614 4.3500351,35.295394 8.0531848,35 13.498142,34.979277 18.945738,35.041925 24.389003,34.967703 28.012052,34.706771 30.775569,30.845122 29.836019,27.330847 29.833738,25.300645 26.765497,24.336816 28.355407,22.48894 29.815113,18.665861 27.745092,13.988203 23.952748,12.472903 22.972942,12.055889 21.908328,11.842683 20.84375,11.84375 z M 20.21875,13.59375 C 23.527165,13.23952 26.784739,15.868299 27.030581,19.205159 27.115191,20.410269 26.970056,22.322167 26.040039,22.926528 23.85825,22.779121 24.34015,19.916014 22.792045,18.711734 21.278161,16.832506 19.06924,15.524713 16.6875,15.125 17.664583,14.25896 18.917452,13.711132 20.21875,13.59375 z M 34.53125,14.5 C 32.976676,14.79175 31.359523,14.999412 29.84375,15.34375 29.432201,15.70465 29.988892,16.309044 30.057328,16.768486 30.153946,17.218356 30.409976,17.817605 30.892161,17.453583 32.226329,16.650798 33.669292,15.884461 34.9375,15.0625 35.138066,14.780605 34.838029,14.456276 34.53125,14.5 z M 15,16.75 C 18.527258,16.691328 21.880457,19.184293 22.875,22.5625 21.79535,22.747412 19.681154,23.400321 19.66679,24.380589 20.173956,24.71003 20.627331,25.845369 21.195407,25.029384 23.413999,23.416094 26.91018,24.431242 27.896354,26.999192 29.087621,29.561636 27.239462,32.866375 24.435283,33.198105 21.16923,33.314717 17.892696,33.218673 14.62245,33.25 11.957151,33.213512 9.2843705,33.327734 6.6243627,33.183689 3.2643734,32.772467 0.9055326,29.012617 2.003206,25.808244 2.6850371,23.482227 4.9843514,21.775323 7.40625,21.78125 8.6597695,18.794322 11.749593,16.71468 15,16.75 z M 30.46875,22.1875 C 30.056841,22.438736 30.028318,23.215643 29.779714,23.682554 29.505486,24.023058 29.684998,24.517691 30.15025,24.501295 31.642521,24.753547 33.129447,25.065901 34.625,25.28125 35.096754,25.222871 35.037983,24.560567 34.590363,24.47021 33.258254,23.721082 31.923603,22.888061 30.59375,22.1875 30.552083,22.1875 30.510417,22.1875 30.46875,22.1875 z"
     id="path7981"
     inkscape:connector-curvature="0" />
</svg>
