<?xml version="1.0" encoding="UTF-8" standalone="no"?>

<!-- Created with Inkscape (http://www.inkscape.org/) -->

<svg id="svg3295" xmlns:rdf="http://www.w3.org/1999/02/22-rdf-syntax-ns#" xmlns="http://www.w3.org/2000/svg" viewBox="0 0 200 200" version="1.1" xmlns:cc="http://creativecommons.org/ns#" xmlns:dc="http://purl.org/dc/elements/1.1/">

 <title id="title3346">Clock Icon</title>

 <metadata id="metadata3300">

  <rdf:RDF>

   <cc:Work rdf:about="">

    <dc:format>image/svg+xml</dc:format>

    <dc:type rdf:resource="http://purl.org/dc/dcmitype/StillImage"/>

    <dc:title>Clock Icon</dc:title>

    <cc:license rdf:resource="http://creativecommons.org/publicdomain/zero/1.0/"/>

    <dc:date>2014-06-11</dc:date>

    <dc:creator>

     <cc:Agent>

      <dc:title>Rossen Georgiev</dc:title>

     </cc:Agent>

    </dc:creator>

    <dc:rights>

     <cc:Agent>

      <dc:title>Rossen Georgiev</dc:title>

     </cc:Agent>

    </dc:rights>

    <dc:subject>

     <rdf:Bag/>

    </dc:subject>

   </cc:Work>

  </rdf:RDF>

 </metadata>

  <path style="fill:#000000;" d="M99.812,43.188c-2.77,0-5,2.032-5,4.562v40.875c-4.315,1.97-7.312,6.321-7.312,11.375,0,6.9,5.596,12.5,12.5,12.5,1.05,0,2.06-0.16,3.03-0.41l23.35,23.35c2.23,2.24,5.93,2.13,8.28-0.22s2.42-6.04,0.18-8.28l-23-23c0.42-1.24,0.66-2.56,0.66-3.94,0-5.202-3.17-9.68-7.69-11.562v-40.688c0-2.53-2.23-4.562-4.998-4.562zm-5.906-23c0.031-0.003,0.063,0.002,0.094,0v14.374c0,0.236,0.202,0.438,0.438,0.438h11.122c0.24,0,0.44-0.202,0.44-0.438v-14.343c39.4,2.921,70.86,34.381,73.78,73.781h-14.34c-0.24,0-0.44,0.171-0.44,0.406v11.154c0,0.24,0.2,0.44,0.44,0.44h14.34c-2.92,39.4-34.38,70.86-73.78,73.78v-14.37c0-0.24-0.2-0.41-0.44-0.41h-11.122c-0.236,0-0.438,0.17-0.438,0.41v14.37c-39.4-2.92-70.86-34.38-73.781-73.78h14.343c0.236,0,0.438-0.2,0.438-0.44v-11.154c0-0.235-0.202-0.406-0.438-0.406h-14.343c2.918-39.372,34.33-70.848,73.687-73.812zm6.094-10.188c-49.706,0-90,40.294-90,90,0,49.71,40.294,90,90,90,49.71,0,90-40.29,90-90,0-49.706-40.29-90-90-90zm0-10c55.23,0,100,44.772,100,100,0,55.23-44.77,100-100,100-55.228,0-100-44.77-100-100,0-55.228,44.772-100,100-100z" />

</svg>

